<?xml version="1.0" encoding="utf-8"?>
<!-- Generator: Adobe Illustrator 25.3.1, SVG Export Plug-In . SVG Version: 6.00 Build 0)  -->
<svg version="1.1" id="Layer_1" xmlns="http://www.w3.org/2000/svg" xmlns:xlink="http://www.w3.org/1999/xlink" x="0px" y="0px"
	 viewBox="0 0 3000 1904.63" style="enable-background:new 0 0 3000 1904.63;" xml:space="preserve">
<style type="text/css">
	.st0{fill:none;}
	.st1{fill-rule:evenodd;clip-rule:evenodd;}
</style>
<g id="Layer_1_1_">
</g>
<rect x="3522.16" y="2228.77" class="st0" width="160.19" height="160.19"/>
<g id="Isolation_Mode">
	<g>
		<polygon class="st1" points="1854.3,555.6 1854.3,489.31 1717.07,516.64 1717.07,586.2 1717.07,1018.74 1717.07,1022.78 
			1717.07,1114.77 1854.3,1114.77 1854.3,1020.91 1854.3,1018.74 1854.3,894.68 1854.3,877.67 1854.3,771.44 1854.3,624.44 		"/>
		<path class="st1" d="M1652.41,712.32L1652.41,712.32c-308.57-22.26-308.57,417.02,0,394.76l0,0
			C1545.39,1081.1,1518.53,766.91,1652.41,712.32L1652.41,712.32z"/>
		<path class="st1" d="M2684.65,671.63l165.72,378.51l-57.54,130.33c-10.43,23.62-21.19,49.11-39.56,67.88
			c-17.54,17.94-39.1,26.77-63.87,29.95c-35.57,4.55-76.39-2.62-110.95-10.82l-10.54-2.51l12.52-148.42l19.24,19.01
			c19.25,19.03,44.34,34.1,71.12,39.77c19.38,4.09,42.32,3.52,58.78-8.74c15.3-11.4,20.32-29.6,20.32-47.81
			c0-13.48-14.77-45.88-20.4-59.12c-10.56-24.82-22.01-48.66-33.42-73.08c-22.79-48.75-46.62-97.01-69.41-145.77l-79.04-169.19
			H2684.65L2684.65,671.63z M2924.35,672.64c37.68,0,68.25,30.28,68.25,67.6c0,10.44-2.39,20.3-6.64,29.14
			c-0.02,0.06-0.06,0.11-0.07,0.17l-0.04,0.09l-61.48,127.31l-61.52-127.4c-4.3-8.87-6.73-18.79-6.73-29.3
			C2856.09,702.92,2886.65,672.64,2924.35,672.64L2924.35,672.64z"/>
		<path class="st1" d="M436.89,975.76V701.61H301.28v276.67c0,101.57,72.64,128.41,136.42,128.41c59.73,0,96.57-38.61,106.26-83.09
			l0,0C505.54,1070.24,436.89,1054.38,436.89,975.76L436.89,975.76z M554.94,796.45v88.22v214.42h137.23v-97.82v-37.91v-88.51
			v-78.37v-2.05v-2.03v-90.78H554.94v92.7V796.45L554.94,796.45z"/>
		<path class="st1" d="M2399.63,671.63h69.33c27.57,0,49.93,23.23,49.93,51.91s-22.34,51.91-49.93,51.91
			c-22.03,0-40.75-14.84-47.37-35.44l-0.04-0.11l-0.02-0.06L2399.63,671.63L2399.63,671.63z"/>
		<path class="st1" d="M2341.5,968.8c0-411.43,0-203.78,0-478.73l-135.61,21.39c0,192.12,0,170.22,0,460.4
			c0,123.25,72.66,155.83,136.42,155.83c59.73,0,106.55-46.86,116.25-100.83l0,0C2423.76,1078.1,2341.5,1067.83,2341.5,968.8
			L2341.5,968.8z"/>
		<g>
			<path class="st1" d="M908.33,707.49c-93.41,29.56-160,106.55-160,196.88c0,115.88,109.59,209.81,244.76,209.81
				c11.75,0,23.3-0.72,34.63-2.1c-48.62-12.41-103.17-80.36-133.44-172.71C861.08,838.14,868.24,741.57,908.33,707.49L908.33,707.49
				z"/>
		</g>
		<path class="st1" d="M1033.4,761.12l-17.31-73.85l69.88,6.01h0.02c29.13,0.77,52.12,25.94,51.38,56.22
			c-0.74,30.28-24.96,54.19-54.07,53.44C1058.96,802.29,1038.9,784.59,1033.4,761.12L1033.4,761.12z"/>
		<path class="st1" d="M1269.9,549.83c37.9,0,68.62,31.35,68.62,70.02c0,38.67-30.71,70.02-68.62,70.02
			c-37.9,0-68.62-31.35-68.62-70.02C1201.29,581.16,1232,549.83,1269.9,549.83L1269.9,549.83z M1338.52,1019.37v-86.56V724.49
			l-137.23,26.5v67.4v37.21v86.87v76.89v2.01v1.99v89.08h137.23v-90.96V1019.37L1338.52,1019.37z"/>
		<polygon class="st1" points="165.98,1004.74 165.98,472.55 28.75,500.03 28.75,1101.28 165.98,1101.28 		"/>
		<path class="st1" d="M2037.95,564.42c37.88,0,68.62,30.65,68.62,68.47s-30.71,68.47-68.62,68.47c-37.9,0-68.62-30.65-68.62-68.47
			S2000.04,564.42,2037.95,564.42L2037.95,564.42z M2106.56,1023.64v-84.66V735.26l-137.23,25.91v65.92v36.38v84.95v75.22v1.95v1.94
			v87.13h137.23v-88.95V1023.64L2106.56,1023.64z"/>
		<rect x="4047.9" y="2547.4" class="st0" width="473.65" height="268.83"/>
	</g>
</g>
</svg>
